<svg viewBox="0 0 64 64" fill="none" xmlns="http://www.w3.org/2000/svg">
  <!-- Background Circle with Gradient -->
  <defs>
    <linearGradient id="logoGradient" x1="0%" y1="0%" x2="100%" y2="100%">
      <stop offset="0%" stop-color="#2563eb" />
      <stop offset="50%" stop-color="#3b82f6" />
      <stop offset="100%" stop-color="#1d4ed8" />
    </linearGradient>
    <linearGradient id="chartGradient" x1="0%" y1="0%" x2="100%" y2="100%">
      <stop offset="0%" stop-color="#10b981" />
      <stop offset="100%" stop-color="#059669" />
    </linearGradient>
  </defs>
  
  <!-- Main Circle Background -->
  <circle cx="32" cy="32" r="30" fill="url(#logoGradient)" stroke="#1e40af" stroke-width="2"/>
  
  <!-- Trading Chart Lines -->
  <g transform="translate(12, 16)">
    <!-- Chart Background -->
    <rect x="0" y="8" width="40" height="24" rx="2" fill="#f8fafc" opacity="0.9"/>
    
    <!-- Chart Grid Lines -->
    <g stroke="#e2e8f0" stroke-width="0.5" opacity="0.6">
      <line x1="0" y1="14" x2="40" y2="14"/>
      <line x1="0" y1="20" x2="40" y2="20"/>
      <line x1="0" y1="26" x2="40" y2="26"/>
      <line x1="10" y1="8" x2="10" y2="32"/>
      <line x1="20" y1="8" x2="20" y2="32"/>
      <line x1="30" y1="8" x2="30" y2="32"/>
    </g>
    
    <!-- Candlestick Chart -->
    <g fill="url(#chartGradient)">
      <!-- Bullish Candles -->
      <rect x="6" y="18" width="3" height="8" rx="0.5" fill="#10b981"/>
      <rect x="16" y="12" width="3" height="14" rx="0.5" fill="#10b981"/>
      <rect x="26" y="15" width="3" height="11" rx="0.5" fill="#10b981"/>
      <rect x="36" y="10" width="3" height="16" rx="0.5" fill="#10b981"/>
      
      <!-- Bearish Candles -->
      <rect x="11" y="20" width="3" height="6" rx="0.5" fill="#ef4444"/>
      <rect x="21" y="22" width="3" height="4" rx="0.5" fill="#ef4444"/>
      <rect x="31" y="19" width="3" height="7" rx="0.5" fill="#ef4444"/>
    </g>
    
    <!-- Trend Line -->
    <path d="M4 28 L12 22 L20 18 L28 16 L36 12" stroke="#fbbf24" stroke-width="2" fill="none" stroke-linecap="round" stroke-linejoin="round"/>
  </g>
  
  <!-- Dollar Sign -->
  <g transform="translate(44, 44)">
    <circle cx="8" cy="8" r="7" fill="#fbbf24" stroke="#f59e0b" stroke-width="1"/>
    <path d="M6 5.5 C6 4.5 6.8 4 8 4 C9.2 4 10 4.5 10 5.5 M6 10.5 C6 11.5 6.8 12 8 12 C9.2 12 10 11.5 10 10.5 M8 3 L8 13 M8 4 L8 12" stroke="white" stroke-width="1.5" fill="none" stroke-linecap="round"/>
  </g>
</svg>
